<?xml version="1.0" encoding="UTF-8" standalone="no"?>
<!-- Created with Inkscape (http://www.inkscape.org/) -->

<svg
   width="1200"
   height="630"
   viewBox="0 0 1200 630"
   version="1.1"
   id="svg1"
   xml:space="preserve"
   xmlns="http://www.w3.org/2000/svg"
   xmlns:svg="http://www.w3.org/2000/svg"><defs
     id="defs1"><rect
       x="17.810131"
       y="95.308273"
       width="465.47021"
       height="286.88754"
       id="rect3" /><rect
       x="17.810131"
       y="95.308273"
       width="465.47021"
       height="286.88754"
       id="rect3-8" /><rect
       x="17.810131"
       y="95.308273"
       width="465.47021"
       height="286.88754"
       id="rect3-8-6" /></defs><g
     id="layer1"
     transform="matrix(1.2298553,0,0,1.2298553,-0.02814015,0.0011338)"><rect
       style="fill:#333333;fill-opacity:1;stroke:#333333;stroke-width:0.42735;stroke-opacity:1"
       id="rect2"
       height="511.88232"
       x="0.33610076"
       y="0.20874254"
       width="975.19659"
       rx="95.234039" /><g
       id="g3"
       transform="matrix(1.9269608,0,0,1.9269608,-4.8467238,-237.17517)"><path
         d="m 25.763165,110.44859 v 8.29168 c 0,0.30824 0.215769,0.52401 0.52401,0.52401 h 0.986371 c 0.893899,0 1.602853,-0.70895 1.602853,-1.60285 v -7.24367 c 0,-2.5584 2.096039,-4.65444 4.685263,-4.65444 h 18.741053 c 0.893899,0 1.602854,-0.73977 1.602854,-1.63367 v -1.23297 c 0,-0.27741 -0.215769,-0.52401 -0.52401,-0.52401 H 33.808255 c -4.43867,0 -8.075914,3.60642 -8.04509,8.07592 z m 6.257292,0.30824 v 0.95555 c 0,0.30824 0.215769,0.52401 0.52401,0.52401 h 16.61419 c 0.893899,0 1.633677,-0.70896 1.633677,-1.60286 v -0.95554 c 0,-0.30825 -0.246592,-0.55484 -0.554833,-0.55484 H 33.62331 c -0.893898,0 -1.602853,0.73978 -1.602853,1.63368 z"
         id="text-F"
         style="font-size:30.8241px;line-height:1.25;font-family:Xspace;-inkscape-font-specification:'Xspace, Normal';white-space:pre;fill:#c8c8c8;stroke-width:0.132103"
         transform="matrix(7.5698373,0,0,7.5698373,70.939222,-582.87784)"
         aria-label="F" /><path
         d="m 24.345256,119.26428 h 2.065215 c 0.67813,0 1.294612,-0.30824 1.72615,-0.86307 l 9.524647,-12.88448 c 0.123296,-0.15412 0.339065,-0.15412 0.431537,0 l 9.555471,12.88448 c 0.400713,0.55483 1.04802,0.86307 1.72615,0.86307 h 2.065215 c 0.339065,0 0.524009,-0.36989 0.308241,-0.61648 L 40.651205,103.63646 c -0.585658,-0.80143 -1.787797,-1.26379 -2.774169,-1.26379 -0.986371,0 -2.157687,0.46236 -2.743345,1.26379 l -11.1275,15.01134 c -0.184945,0.24659 0,0.61648 0.339065,0.61648 z"
         id="text-A"
         style="font-size:30.8241px;line-height:1.25;font-family:Xspace;-inkscape-font-specification:'Xspace, Normal';white-space:pre;fill:#c8c8c8;stroke-width:0.132103"
         transform="matrix(7.5698373,0,0,7.5698373,-148.75646,-582.87784)"
         aria-label="A" /></g></g></svg>
